<?xml version="1.0" encoding="utf-8"?>
<!-- Generator: Adobe Illustrator 16.0.2, SVG Export Plug-In . SVG Version: 6.00 Build 0)  -->
<!DOCTYPE svg PUBLIC "-//W3C//DTD SVG 1.1//EN" "http://www.w3.org/Graphics/SVG/1.1/DTD/svg11.dtd">
<svg version="1.1" id="Layer_1" xmlns="http://www.w3.org/2000/svg" xmlns:xlink="http://www.w3.org/1999/xlink" x="0px" y="0px"
	 width="1280px" height="600px" viewBox="0 0 1280 600" enable-background="new 0 0 1280 600" xml:space="preserve">
<linearGradient id="SVGID_1_" gradientUnits="userSpaceOnUse" x1="2" y1="298.1851" x2="930.8096" y2="298.1851">
	<stop  offset="0" style="stop-color:#2AF598"/>
	<stop  offset="0.1969" style="stop-color:#26EDA1"/>
	<stop  offset="0.5241" style="stop-color:#1CD7BB"/>
	<stop  offset="0.9392" style="stop-color:#0AB3E4"/>
	<stop  offset="0.9944" style="stop-color:#08AEEA"/>
</linearGradient>
<path fill="url(#SVGID_1_)" d="M895.18,451.13c0,40.851,6.36,80.22,18.13,117.19c-8.27-4.21-16.449-8.391-24.489-10.78
	c-29.16-8.66-60.311-12.21-90.66-12.21c-29.38,0-59.45,3.35-87.771,11.41c-21.069,6-41.46,22.38-63.319,24
	c-22.21,1.63-46.291-17.15-67.521-23.15c-29.46-8.33-60.24-12.26-90.84-12.26c-31.38,0-62.94,4.17-93.13,12.87
	c-24.22,6.979-49.62,24.87-75.48,17.55c-48.6-13.75-89.33-30.42-141.09-30.42C113.25,545.33,53,563.83,2,595.37V1h641
	c16.33,138,135.78,240.66,287.81,288.23C907.95,338.56,895.18,393.23,895.18,451.13z"/>
<linearGradient id="SVGID_2_" gradientUnits="userSpaceOnUse" x1="895.1641" y1="329" x2="1282" y2="329">
	<stop  offset="0" style="stop-color:#2AF598"/>
	<stop  offset="0.1969" style="stop-color:#26EDA1"/>
	<stop  offset="0.5241" style="stop-color:#1CD7BB"/>
	<stop  offset="0.9392" style="stop-color:#0AB3E4"/>
	<stop  offset="0.9944" style="stop-color:#08AEEA"/>
</linearGradient>
<path opacity="0.9" fill="url(#SVGID_2_)" d="M1282,63.8v530.4c-49-30.83-109.69-48.87-174.63-48.87
	c-30.78,0-62.165,3.729-91.735,12.51c-20.229,6.01-41.957,24.03-63.178,23.851c-13.17-0.12-26.269-6.79-39.179-13.37
	c-11.77-36.971-18.114-76.34-18.114-117.19c0-57.899,12.528-112.82,35.388-162.15C992.112,156.05,1127,63.8,1282,63.8z"/>
<path fill="none" d="M1282,594.2v6.8H2v-5.63c51-31.54,111.25-50.04,177.01-50.04c51.76,0,92.365,16.67,140.965,30.42
	c25.86,7.32,51.322-10.57,75.542-17.55c30.19-8.7,61.781-12.87,93.161-12.87c30.6,0,61.396,3.93,90.855,12.26
	c21.23,6,45.318,24.78,67.528,23.15c21.859-1.62,42.254-18,63.323-24c28.32-8.061,58.393-11.41,87.772-11.41
	c30.35,0,61.501,3.55,90.661,12.21c8.04,2.39,16.22,6.57,24.489,10.78c12.91,6.58,26.041,13.25,39.211,13.37
	c21.221,0.18,43.011-17.841,63.24-23.851c29.57-8.78,60.83-12.51,91.61-12.51C1172.31,545.33,1233,563.37,1282,594.2z"/>
<g>
</g>
<g>
</g>
<g>
</g>
<g>
</g>
<g>
</g>
<g>
</g>
<g>
</g>
<g>
</g>
<g>
</g>
<g>
</g>
<g>
</g>
<g>
</g>
<g>
</g>
<g>
</g>
<g>
</g>
</svg>
